<svg width="14" height="14" viewBox="0 0 14 14" fill="none" xmlns="http://www.w3.org/2000/svg">
<path d="M7.19679 0C9.12093 0 10.6515 0.578616 11.7885 1.73585C12.863 2.81761 13.4003 4.19497 13.4003 5.86792C13.4003 7.20126 12.9817 8.41509 12.1446 9.50943C11.3324 10.5157 10.4641 11.0189 9.53949 11.0189C8.77733 11.0189 8.36502 10.5849 8.30254 9.71698C7.60286 10.6101 6.77822 11.0566 5.82865 11.0566C5.05399 11.0566 4.44177 10.7987 3.99197 10.283C3.52967 9.7673 3.29853 9.11321 3.29853 8.32076C3.29853 6.83648 3.73583 5.5912 4.61044 4.58491C5.43507 3.5912 6.40339 3.09434 7.5154 3.09434C8.43998 3.09434 9.05221 3.5912 9.35208 4.58491L9.67068 3.45283H10.6078L9.25837 8.58491C9.12093 9 9.05221 9.35849 9.05221 9.66038C9.05221 10 9.24587 10.1698 9.6332 10.1698C10.2454 10.1698 10.8639 9.78616 11.4886 9.01887C12.2008 8.11321 12.5569 7.06289 12.5569 5.86792C12.5569 4.45912 12.0821 3.27673 11.1325 2.32076C10.1205 1.33962 8.78983 0.849057 7.14056 0.849057C5.37885 0.849057 3.917 1.44025 2.75502 2.62264C1.58054 3.79245 0.993307 5.27673 0.993307 7.07547C0.993307 9 1.5618 10.5094 2.6988 11.6038C3.82329 12.6604 5.29763 13.1887 7.12182 13.1887C8.5087 13.1887 9.72691 12.9245 10.7764 12.3962C11.6885 11.9182 12.4195 11.2893 12.9692 10.5094H14C13.3378 11.6038 12.4132 12.4528 11.2262 13.0566C10.0018 13.6855 8.63365 14 7.12182 14C4.99777 14 3.27979 13.3711 1.96787 12.1132C0.655957 10.8302 0 9.13836 0 7.03774C0 5.06289 0.674699 3.40881 2.0241 2.07547C3.38599 0.691824 5.11022 0 7.19679 0ZM7.64659 4.01887C6.77198 4.01887 6.00982 4.42138 5.36011 5.22642C4.66042 6.0566 4.31058 7.09434 4.31058 8.33962C4.31058 8.90566 4.44801 9.34591 4.72289 9.66038C5.01026 10.0126 5.39759 10.1887 5.88487 10.1887C6.42213 10.1887 6.95315 9.96227 7.47791 9.50943C7.96519 9.09434 8.2838 8.62264 8.43373 8.09434L8.86479 6.45283C8.98974 5.94969 9.05221 5.66038 9.05221 5.58491C9.05221 5.22013 8.93351 4.8805 8.69612 4.56604C8.44623 4.20126 8.09639 4.01887 7.64659 4.01887Z" fill="white"/>
</svg>
