<svg width="6" height="4" viewBox="0 0 6 4" fill="none" xmlns="http://www.w3.org/2000/svg">
<path d="M0.180576 3.57538C0.144898 3.55915 0.112505 3.53539 0.0852559 3.50545L0.0858447 3.50513C-0.0277785 3.381 -0.0292503 3.17584 0.0852559 3.05075L2.79041 0.0958597L2.79161 0.0945529C2.81888 0.0645874 2.85131 0.0408074 2.88702 0.0245806C2.92274 0.0083537 2.96104 0 2.99972 0C3.0384 0 3.0767 0.0083537 3.11242 0.0245806C3.14813 0.0408074 3.18056 0.0645874 3.20783 0.0945529C3.21036 0.0973195 3.21283 0.100126 3.21524 0.102972L5.9136 3.05107C5.94098 3.08086 5.96271 3.11626 5.97754 3.15525C5.99237 3.19424 6 3.23604 6 3.27826C6 3.32048 5.99237 3.36228 5.97754 3.40127C5.96271 3.44025 5.94098 3.47566 5.9136 3.50545C5.80027 3.62957 5.61217 3.63118 5.49766 3.50577L2.99943 0.776603L0.501187 3.50577C0.4739 3.53566 0.441476 3.55938 0.405777 3.57555C0.370078 3.59172 0.331807 3.60003 0.293161 3.6C0.254514 3.59997 0.216254 3.5916 0.180576 3.57538Z" fill="white"/>
</svg>
