<svg width="10" height="10" viewBox="0 0 10 10" fill="none" xmlns="http://www.w3.org/2000/svg">
<path d="M5 0C2.23888 0 0 2.23888 0 5.00001C0 7.76113 2.23888 10 5 10C7.76112 10 10 7.76113 10 5.00001C10 2.23888 7.76112 0 5 0ZM7.36985 6.97671C7.47112 7.07776 7.47112 7.24334 7.36985 7.34441L7.34438 7.36999C7.24333 7.47115 7.07773 7.47115 6.97669 7.36999L5 5.3934L3.0233 7.36998C2.92225 7.47113 2.75666 7.47113 2.65561 7.36998L2.62992 7.3444C2.52886 7.24333 2.52886 7.07774 2.62992 6.9767L4.60789 4.99999L2.62992 3.0233C2.52886 2.92224 2.52886 2.75666 2.62992 2.6556L2.65561 2.62991C2.75666 2.52887 2.92225 2.52887 3.0233 2.62991L5 4.60778L6.9767 2.63109C7.07775 2.52994 7.24334 2.52994 7.34439 2.63109L7.36987 2.65667C7.47114 2.75773 7.47114 2.92331 7.36987 3.02437L5.39338 5.00001L7.36985 6.97671Z" fill="white" fill-opacity="0.6"/>
</svg>
