<svg preserveAspectRatio="none" width="100%" height="100%" overflow="visible" style="display: block;" viewBox="0 0 16 16" fill="none" xmlns="http://www.w3.org/2000/svg">
<path id="Vector" d="M2.91456 12.8C2.95444 12.7995 2.99423 12.7961 3.0336 12.7898L6.39744 12.201C6.43788 12.1938 6.47505 12.1741 6.50368 12.1446L14.9824 3.66593C15.0592 3.58913 15.0592 3.46113 14.9824 3.38433L11.6582 0.0576131C11.6396 0.0390675 11.6174 0.0244239 11.593 0.014535C11.5686 0.00464606 11.5425 -0.000290418 11.5162 1.32011e-05C11.4898 -0.000290418 11.4637 0.00464606 11.4393 0.014535C11.4149 0.0244239 11.3928 0.0390675 11.3741 0.0576131L2.89664 8.53761C2.86759 8.56654 2.84796 8.60357 2.84032 8.64385L2.25024 12.0077C2.23351 12.1047 2.23812 12.2043 2.26374 12.2994C2.28936 12.3945 2.33537 12.4828 2.39859 12.5584C2.4618 12.6339 2.5407 12.6947 2.62981 12.7367C2.71891 12.7786 2.81608 12.8007 2.91456 12.8013V12.8ZM4.2624 9.312L11.5162 2.05953L12.9818 3.52641L5.728 10.7776L3.9488 11.0925L4.2624 9.312ZM15.36 14.4794H0.64C0.470261 14.4794 0.307475 14.5468 0.187452 14.6668C0.0674285 14.7868 0 14.9496 0 15.1194V15.84C0 15.9283 0.07168 16 0.16 16H15.84C15.8824 16 15.9231 15.9831 15.9531 15.9531C15.9831 15.9231 16 15.8824 16 15.84V15.1194C16 14.9496 15.9326 14.7868 15.8125 14.6668C15.6925 14.5468 15.5297 14.4794 15.36 14.4794Z" fill="var(--fill-0, #999999)"/>
</svg>
