<svg width="14" height="14" viewBox="0 0 14 14" fill="none" xmlns="http://www.w3.org/2000/svg">
<path d="M9.91797 2.33301H8.7513C8.42914 2.33301 8.16797 2.59418 8.16797 2.91634V11.083C8.16797 11.4052 8.42914 11.6663 8.7513 11.6663H9.91797C10.2401 11.6663 10.5013 11.4052 10.5013 11.083V2.91634C10.5013 2.59418 10.2401 2.33301 9.91797 2.33301Z" fill="black" stroke="black" stroke-width="1.16667" stroke-linecap="round" stroke-linejoin="round"/>
<path d="M5.25 2.33301H4.08333C3.76117 2.33301 3.5 2.59418 3.5 2.91634V11.083C3.5 11.4052 3.76117 11.6663 4.08333 11.6663H5.25C5.57217 11.6663 5.83333 11.4052 5.83333 11.083V2.91634C5.83333 2.59418 5.57217 2.33301 5.25 2.33301Z" fill="black" stroke="black" stroke-width="1.16667" stroke-linecap="round" stroke-linejoin="round"/>
</svg>
