<svg width="16" height="16" viewBox="0 0 16 16" fill="none" xmlns="http://www.w3.org/2000/svg">
<g clip-path="url(#clip0_8243_96221)">
<path d="M8 3C5.23857 3 3 5.23858 3 8C3 10.7614 5.23858 13 8 13C10.7614 13 13 10.7614 13 8C13 5.23857 10.7614 3 8 3ZM5.73839 8.6185C5.3968 8.6185 5.11989 8.34159 5.11989 8C5.11989 7.65841 5.3968 7.3815 5.73839 7.3815C6.07999 7.3815 6.3569 7.65841 6.3569 8C6.3569 8.34159 6.07999 8.6185 5.73839 8.6185ZM8 8.6185C7.65841 8.6185 7.3815 8.34159 7.3815 8C7.3815 7.65841 7.65841 7.3815 8 7.3815C8.34159 7.3815 8.6185 7.65841 8.6185 8C8.6185 8.34159 8.34159 8.6185 8 8.6185ZM10.2616 8.6185C9.92001 8.6185 9.64311 8.34159 9.64311 8C9.64311 7.65841 9.92001 7.3815 10.2616 7.3815C10.6032 7.3815 10.8801 7.65841 10.8801 8C10.8801 8.34159 10.6032 8.6185 10.2616 8.6185Z" fill="#D4FF48"/>
</g>
<defs>
<clipPath id="clip0_8243_96221">
<rect width="16" height="16" fill="white"/>
</clipPath>
</defs>
</svg>
