<svg width="16" height="16" viewBox="0 0 16 16" fill="none" xmlns="http://www.w3.org/2000/svg">
<path d="M12.1667 3H3.83328C3.61228 3 3.40033 3.08779 3.24406 3.24406C3.08779 3.40033 3 3.61228 3 3.83328V12.1667C3 12.3877 3.08779 12.5997 3.24406 12.7559C3.40033 12.9122 3.61228 13 3.83328 13H12.1667C12.3877 13 12.5997 12.9122 12.7559 12.7559C12.9122 12.5997 13 12.3877 13 12.1667V3.83328C13 3.61228 12.9122 3.40033 12.7559 3.24406C12.5997 3.08779 12.3877 3 12.1667 3ZM6.48492 9.49416L5.89589 10.0832L3.83328 8.02058L4.42231 7.43155L5.89522 5.95864L6.48425 6.54767L5.01134 8.02058L6.48492 9.49416ZM7.58336 11.3334H6.75008L8.41664 4.66655H9.24992L7.58336 11.3334ZM10.1041 10.0832L9.51508 9.49416L10.988 8.02125L9.51508 6.54834L10.1041 5.95931L11.5777 7.43222L12.1667 8.02125L10.1041 10.0832Z" fill="#D4FF48"/>
</svg>
